<?xml version="1.0" encoding="UTF-8" standalone="no"?>
<!-- Created with Inkscape (http://www.inkscape.org/) -->

<svg
   version="1.1"
   width="361.5"
   height="541.5"
   id="svg2"
   xmlns="http://www.w3.org/2000/svg"
   xmlns:svg="http://www.w3.org/2000/svg"
   xmlns:rdf="http://www.w3.org/1999/02/22-rdf-syntax-ns#"
   xmlns:cc="http://creativecommons.org/ns#"
   xmlns:dc="http://purl.org/dc/elements/1.1/">
  <title
     id="title31408">English pattern playing cards deck PLUS CC0</title>
  <metadata
     id="metadata14752">
    <rdf:RDF>
      <cc:Work
         rdf:about="">
        <dc:format>image/svg+xml</dc:format>
        <dc:type
           rdf:resource="http://purl.org/dc/dcmitype/StillImage" />
        <cc:license
           rdf:resource="http://creativecommons.org/publicdomain/zero/1.0/" />
        <dc:creator>
          <cc:Agent>
            <dc:title>Loren Osborn</dc:title>
          </cc:Agent>
        </dc:creator>
        <dc:language>English</dc:language>
        <dc:source>https://commons.wikimedia.org/wiki/File:English_pattern_playing_cards_deck_PLUS_CC0.svg</dc:source>
        <dc:date>5 March 2024</dc:date>
        <dc:title>English pattern playing cards deck PLUS CC0</dc:title>
        <dc:publisher>
          <cc:Agent>
            <dc:title>Wikimedia Commons</dc:title>
          </cc:Agent>
        </dc:publisher>
        <dc:contributor>
          <cc:Agent>
            <dc:title>This overall image was based on https://commons.wikimedia.org/wiki/File:English_pattern_playing_cards_deck_PLUS.svg by Guy vandegrift. The majority of this image consists of cards made by Dmitry Fomin (CC0), The blue rounded-rectangle card back and the blank card are from Guy vandegrift. The LGPL card back by David Bellot was removed and replaced by 4 colored card backs with original design (inspired by David Bellot's symmetrical card back design). 4-color card backs, English &quot;Joker&quot; card names and embellished Ace of spades were Loren Osborn's own work.</dc:title>
          </cc:Agent>
        </dc:contributor>
        <dc:rights>
          <cc:Agent>
            <dc:title>CC0 (Public Domain)</dc:title>
          </cc:Agent>
        </dc:rights>
        <dc:subject>
          <rdf:Bag>
            <rdf:li>playing cards</rdf:li>
          </rdf:Bag>
        </dc:subject>
        <dc:description>All 54 English playing card faces, in suits Spades, Hearts, Diamons Clubs, and ancillary cards in rows from top to bottom. The 4 suited rows each have 13 cards from Ace on the left to King on the right. The ancillary card row at the bottom is laid out as follows: the monochrome and color Jokers are below the 2 and 3 cards respectively. A blank card lies below the 4 cards, A blue rounded-rectangle card back lies below the Aces: A matched set of color coded highly symetrical card backs in blue, red, purple and gold lie below the 5, 6, 7 and 8 cards respectively.</dc:description>
      </cc:Work>
      <cc:License
         rdf:about="http://creativecommons.org/publicdomain/zero/1.0/">
        <cc:permits
           rdf:resource="http://creativecommons.org/ns#Reproduction" />
        <cc:permits
           rdf:resource="http://creativecommons.org/ns#Distribution" />
        <cc:permits
           rdf:resource="http://creativecommons.org/ns#DerivativeWorks" />
      </cc:License>
    </rdf:RDF>
  </metadata>
  <defs
     id="defs14750" />
  <g
     transform="translate(0.75005312,-511.6122)"
     id="g3087">
    <rect
       rx="29.944447"
       ry="29.944447"
       y="512.86218"
       x="0.5"
       height="539"
       width="359"
       id="rect6472-13"
       style="fill:#ffffff;stroke:#000000;stroke-width:2.5;stroke-miterlimit:4;stroke-dasharray:none" />
    <path
       style="fill:#000000;fill-opacity:1;stroke:none"
       id="rect3163-5-18-0-7-5"
       d="m 30,542.36208 c -5.54,0 -10,4.46 -10,10 v 5 c 0,3.0036 1.323,5.67 3.4063,7.5 -2.0833,1.83 -3.4063,4.4964 -3.4063,7.5 v 10 c 0,5.54 4.46,10 10,10 5.54,0 10,-4.46 10,-10 v -10 c 0,-3.0036 -1.323,-5.67 -3.4062,-7.5 2.0832,-1.83 3.4062,-4.4964 3.4062,-7.5 v -5 c 0,-5.54 -4.46,-10 -10,-10 z m 0,5 c 2.77,0 5,2.23 5,5 v 5 c 0,2.77 -2.23,5 -5,5 -2.77,0 -5,-2.23 -5,-5 v -5 c 0,-2.77 2.23,-5 5,-5 z m 0,20 c 2.77,0 5,2.23 5,5 v 10 c 0,2.77 -2.23,5 -5,5 -2.77,0 -5,-2.23 -5,-5 v -10 c 0,-2.77 2.23,-5 5,-5 z" />
    <path
       style="fill:#000000;fill-opacity:1;stroke:none"
       id="rect3163-5-18-0-7-4-9"
       d="m 330,1022.3621 c -5.54,0 -10,-4.46 -10,-10 v -5 c 0,-3.0036 1.323,-5.67 3.4063,-7.5 C 321.323,998.0321 320,995.3657 320,992.36208 v -10 c 0,-5.54 4.46,-10 10,-10 5.54,0 10,4.46 10,10 v 10 c 0,3.00362 -1.323,5.67002 -3.4062,7.50002 2.0832,1.83 3.4062,4.4964 3.4062,7.5 v 5 c 0,5.54 -4.46,10 -10,10 z m 0,-5 c 2.77,0 5,-2.23 5,-5 v -5 c 0,-2.77 -2.23,-5 -5,-5 -2.77,0 -5,2.23 -5,5 v 5 c 0,2.77 2.23,5 5,5 z m 0,-20 c 2.77,0 5,-2.23 5,-5.00002 v -10 c 0,-2.77 -2.23,-5 -5,-5 -2.77,0 -5,2.23 -5,5 v 10 c 0,2.77002 2.23,5.00002 5,5.00002 z" />
    <path
       style="fill:#000000;fill-opacity:1;stroke:none"
       d="m 32.5,630.36218 c 1,2 3.5,5 6,5 4.5,0 6.5,-4 6.5,-9 0,-5 -2,-9.5 -6.5,-9.5 -2.5,0 -4,2.5 -5.5,4 -0.5,0.5 -1,0 -0.5,-0.5 1.5,-1.5 4,-5.5 4,-9 0,-4 -2.5,-9 -6.5,-9 -4,0 -6.5,5 -6.5,9 0,3.5 2.5,7.5 4,9 0.5,0.5 0,1 -0.5,0.5 -1.5,-1.5 -3,-4 -5.5,-4 -4.5,0 -6.5,4.5 -6.5,9.5 0,5 2,9 6.5,9 2.5,0 5,-3 6,-5 0.5,-0.5 0.5,0 0.5,0.5 -0.5,4 -0.5,5 -1,8 -0.5,3 -2,8.5 -2,8.5 2.5,-1 7.5,-1 10,0 0,0 -1.5,-5.5 -2,-8.5 -0.5,-3 -0.5,-4 -1,-8 0,-0.5 0,-1 0.5,-0.5 z"
       id="path3037-1-8" />
    <path
       style="fill:#000000;fill-opacity:1;stroke:none"
       d="m 332.5,934.36218 c 1,-2 3.5,-5 6,-5 4.5,0 6.5,4 6.5,9 0,5 -2,9.5 -6.5,9.5 -2.5,0 -4,-2.5 -5.5,-4 -0.5,-0.5 -1,0 -0.5,0.5 1.5,1.5 4,5.5 4,9 0,4 -2.5,9 -6.5,9 -4,0 -6.5,-5 -6.5,-9 0,-3.5 2.5,-7.5 4,-9 0.5,-0.5 0,-1 -0.5,-0.5 -1.5,1.5 -3,4 -5.5,4 -4.5,0 -6.5,-4.5 -6.5,-9.5 0,-5 2,-9 6.5,-9 2.5,0 5,3 6,5 0.5,0.5 0.5,0 0.5,-0.5 -0.5,-4 -0.5,-5 -1,-8 -0.5,-3 -2,-8.5 -2,-8.5 2.5,1 7.5,1 10,0 0,0 -1.5,5.5 -2,8.5 -0.5,3 -0.5,4 -1,8 0,0.5 0,1 0.5,0.5 z"
       id="path3037-1-1-4" />
    <path
       style="fill:#000000;fill-opacity:1;stroke:none"
       d="m 95,613.36218 c 2,4 7,10 12,10 9,0 13,-8 13,-18 0,-10 -4,-19 -13,-19 -5,0 -8,5 -11,8 -1,1 -2,0 -1,-1 3,-3 8,-11 8,-18 0,-8 -5,-18 -13,-18 -8,0 -13,10 -13,18 0,7 5,15 8,18 1,1 0,2 -1,1 -3,-3 -6,-8 -11,-8 -9,0 -13,9 -13,19 0,10 4,18 13,18 5,0 10,-6 12,-10 1,-1 1,0 1,1 -1,8 -1,10 -2,16 -1,6 -4,17 -4,17 5,-2 15,-2 20,0 0,0 -3,-11 -4,-17 -1,-6 -1,-8 -2,-16 0,-1 0,-2 1,-1 z"
       id="path3037-07" />
    <path
       style="fill:#000000;fill-opacity:1;stroke:none"
       d="m 275,613.36218 c 2,4 7,10 12,10 9,0 13,-8 13,-18 0,-10 -4,-19 -13,-19 -5,0 -8,5 -11,8 -1,1 -2,0 -1,-1 3,-3 8,-11 8,-18 0,-8 -5,-18 -13,-18 -8,0 -13,10 -13,18 0,7 5,15 8,18 1,1 0,2 -1,1 -3,-3 -6,-8 -11,-8 -9,0 -13,9 -13,19 0,10 4,18 13,18 5,0 10,-6 12,-10 1,-1 1,0 1,1 -1,8 -1,10 -2,16 -1,6 -4,17 -4,17 5,-2 15,-2 20,0 0,0 -3,-11 -4,-17 -1,-6 -1,-8 -2,-16 0,-1 0,-2 1,-1 z"
       id="path3037-7-6" />
    <path
       style="fill:#000000;fill-opacity:1;stroke:none"
       d="m 185,703.36218 c 2,4 7,10 12,10 9,0 13,-8 13,-18 0,-10 -4,-19 -13,-19 -5,0 -8,5 -11,8 -1,1 -2,0 -1,-1 3,-3 8,-11 8,-18 0,-8 -5,-18 -13,-18 -8,0 -13,10 -13,18 0,7 5,15 8,18 1,1 0,2 -1,1 -3,-3 -6,-8 -11,-8 -9,0 -13,9 -13,19 0,10 4,18 13,18 5,0 10,-6 12,-10 1,-1 1,0 1,1 -1,8 -1,10 -2,16 -1,6 -4,17 -4,17 5,-2 15,-2 20,0 0,0 -3,-11 -4,-17 -1,-6 -1,-8 -2,-16 0,-1 0,-2 1,-1 z"
       id="path3037-4-3" />
    <path
       style="fill:#000000;fill-opacity:1;stroke:none"
       d="m 95,793.36218 c 2,4 7,10 12,10 9,0 13,-8 13,-18 0,-10 -4,-19 -13,-19 -5,0 -8,5 -11,8 -1,1 -2,0 -1,-1 3,-3 8,-11 8,-18 0,-8 -5,-18 -13,-18 -8,0 -13,10 -13,18 0,7 5,15 8,18 1,1 0,2 -1,1 -3,-3 -6,-8 -11,-8 -9,0 -13,9 -13,19 0,10 4,18 13,18 5,0 10,-6 12,-10 1,-1 1,0 1,1 -1,8 -1,10 -2,16 -1,6 -4,17 -4,17 5,-2 15,-2 20,0 0,0 -3,-11 -4,-17 -1,-6 -1,-8 -2,-16 0,-1 0,-2 1,-1 z"
       id="path3037-0-6" />
    <path
       style="fill:#000000;fill-opacity:1;stroke:none"
       d="m 275,793.36218 c 2,4 7,10 12,10 9,0 13,-8 13,-18 0,-10 -4,-19 -13,-19 -5,0 -8,5 -11,8 -1,1 -2,0 -1,-1 3,-3 8,-11 8,-18 0,-8 -5,-18 -13,-18 -8,0 -13,10 -13,18 0,7 5,15 8,18 1,1 0,2 -1,1 -3,-3 -6,-8 -11,-8 -9,0 -13,9 -13,19 0,10 4,18 13,18 5,0 10,-6 12,-10 1,-1 1,0 1,1 -1,8 -1,10 -2,16 -1,6 -4,17 -4,17 5,-2 15,-2 20,0 0,0 -3,-11 -4,-17 -1,-6 -1,-8 -2,-16 0,-1 0,-2 1,-1 z"
       id="path3037-9-1" />
    <path
       style="fill:#000000;fill-opacity:1;stroke:none"
       d="m 185,861.36218 c 2,-4 7,-10 12,-10 9,0 13,8 13,18 0,10 -4,19 -13,19 -5,0 -8,-5 -11,-8 -1,-1 -2,0 -1,1 3,3 8,11 8,18 0,8 -5,18 -13,18 -8,0 -13,-10 -13,-18 0,-7 5,-15 8,-18 1,-1 0,-2 -1,-1 -3,3 -6,8 -11,8 -9,0 -13,-9 -13,-19 0,-10 4,-18 13,-18 5,0 10,6 12,10 1,1 1,0 1,-1 -1,-8 -1,-10 -2,-16 -1,-6 -4,-17 -4,-17 5,2 15,2 20,0 0,0 -3,11 -4,17 -1,6 -1,8 -2,16 0,1 0,2 1,1 z"
       id="path3037-488-5" />
    <path
       style="fill:#000000;fill-opacity:1;stroke:none"
       d="m 95,951.3622 c 2,-4 7,-10 12,-10 9,0 13,8 13,18 0,10 -4,19 -13,19 -5,0 -8,-5 -11,-8 -1,-1 -2,0 -1,1 3,3 8,11 8,18 0,8 -5,18 -13,18 -8,0 -13,-10 -13,-18 0,-7 5,-15 8,-18 1,-1 0,-2 -1,-1 -3,3 -6,8 -11,8 -9,0 -13,-9 -13,-19 0,-10 4,-18 13,-18 5,0 10,6 12,10 1,1 1,0 1,-1 -1,-8 -1,-10 -2,-16 -1,-6 -4,-17.00002 -4,-17.00002 5,2 15,2 20,0 0,0 -3,11.00002 -4,17.00002 -1,6 -1,8 -2,16 0,1 0,2 1,1 z"
       id="path3037-2-4" />
    <path
       style="fill:#000000;fill-opacity:1;stroke:none"
       d="m 275,951.3622 c 2,-4 7,-10 12,-10 9,0 13,8 13,18 0,10 -4,19 -13,19 -5,0 -8,-5 -11,-8 -1,-1 -2,0 -1,1 3,3 8,11 8,18 0,8 -5,18 -13,18 -8,0 -13,-10 -13,-18 0,-7 5,-15 8,-18 1,-1 0,-2 -1,-1 -3,3 -6,8 -11,8 -9,0 -13,-9 -13,-19 0,-10 4,-18 13,-18 5,0 10,6 12,10 1,1 1,0 1,-1 -1,-8 -1,-10 -2,-16 -1,-6 -4,-17.00002 -4,-17.00002 5,2 15,2 20,0 0,0 -3,11.00002 -4,17.00002 -1,6 -1,8 -2,16 0,1 0,2 1,1 z"
       id="path3037-45-2" />
  </g>
</svg>
