<?xml version="1.0" encoding="UTF-8" standalone="no"?>
<!-- Created with Inkscape (http://www.inkscape.org/) -->

<svg
   version="1.1"
   width="361.5"
   height="541.5"
   id="svg2"
   xmlns="http://www.w3.org/2000/svg"
   xmlns:svg="http://www.w3.org/2000/svg"
   xmlns:rdf="http://www.w3.org/1999/02/22-rdf-syntax-ns#"
   xmlns:cc="http://creativecommons.org/ns#"
   xmlns:dc="http://purl.org/dc/elements/1.1/">
  <title
     id="title31408">English pattern playing cards deck PLUS CC0</title>
  <metadata
     id="metadata14752">
    <rdf:RDF>
      <cc:Work
         rdf:about="">
        <dc:format>image/svg+xml</dc:format>
        <dc:type
           rdf:resource="http://purl.org/dc/dcmitype/StillImage" />
        <cc:license
           rdf:resource="http://creativecommons.org/publicdomain/zero/1.0/" />
        <dc:creator>
          <cc:Agent>
            <dc:title>Loren Osborn</dc:title>
          </cc:Agent>
        </dc:creator>
        <dc:language>English</dc:language>
        <dc:source>https://commons.wikimedia.org/wiki/File:English_pattern_playing_cards_deck_PLUS_CC0.svg</dc:source>
        <dc:date>5 March 2024</dc:date>
        <dc:title>English pattern playing cards deck PLUS CC0</dc:title>
        <dc:publisher>
          <cc:Agent>
            <dc:title>Wikimedia Commons</dc:title>
          </cc:Agent>
        </dc:publisher>
        <dc:contributor>
          <cc:Agent>
            <dc:title>This overall image was based on https://commons.wikimedia.org/wiki/File:English_pattern_playing_cards_deck_PLUS.svg by Guy vandegrift. The majority of this image consists of cards made by Dmitry Fomin (CC0), The blue rounded-rectangle card back and the blank card are from Guy vandegrift. The LGPL card back by David Bellot was removed and replaced by 4 colored card backs with original design (inspired by David Bellot's symmetrical card back design). 4-color card backs, English &quot;Joker&quot; card names and embellished Ace of spades were Loren Osborn's own work.</dc:title>
          </cc:Agent>
        </dc:contributor>
        <dc:rights>
          <cc:Agent>
            <dc:title>CC0 (Public Domain)</dc:title>
          </cc:Agent>
        </dc:rights>
        <dc:subject>
          <rdf:Bag>
            <rdf:li>playing cards</rdf:li>
          </rdf:Bag>
        </dc:subject>
        <dc:description>All 54 English playing card faces, in suits Spades, Hearts, Diamons Clubs, and ancillary cards in rows from top to bottom. The 4 suited rows each have 13 cards from Ace on the left to King on the right. The ancillary card row at the bottom is laid out as follows: the monochrome and color Jokers are below the 2 and 3 cards respectively. A blank card lies below the 4 cards, A blue rounded-rectangle card back lies below the Aces: A matched set of color coded highly symetrical card backs in blue, red, purple and gold lie below the 5, 6, 7 and 8 cards respectively.</dc:description>
      </cc:Work>
      <cc:License
         rdf:about="http://creativecommons.org/publicdomain/zero/1.0/">
        <cc:permits
           rdf:resource="http://creativecommons.org/ns#Reproduction" />
        <cc:permits
           rdf:resource="http://creativecommons.org/ns#Distribution" />
        <cc:permits
           rdf:resource="http://creativecommons.org/ns#DerivativeWorks" />
      </cc:License>
    </rdf:RDF>
  </metadata>
  <defs
     id="defs14750" />
  <g
     id="g81759"
     transform="translate(-29.249999,-29.250002)">
    <rect
       rx="29.944447"
       ry="29.944447"
       y="30.500002"
       x="30.5"
       height="539"
       width="359"
       id="rect6472-45"
       style="fill:#ffffff;stroke:#000000;stroke-width:2.5;stroke-miterlimit:4;stroke-dasharray:none" />
    <g
       id="g81739">
      <g
         id="g81495">
        <path
           id="path50228"
           style="fill:#000000;fill-opacity:1;stroke:none;stroke-width:1.9683"
           d="m 209.44591,212.28008 c 0,0 -20.38117,24.41107 -29.5245,37.3977 -7.12658,10.12216 -14.60895,20.20122 -19.683,31.4928 -4.76535,10.60462 -9.8415,19.68302 -9.8415,33.4611 0,19.68299 4.85151,35.0739 22.56618,35.0739 13.77808,0 11.68121,-26.45914 13.64951,-34.33233 1.9683,-1.9683 21.83237,3.2497 22.83993,3.20933 1.00757,-0.0403 20.8584,-4.94025 22.82669,-2.97195 1.9683,7.8732 0.40468,34.6282 14.18275,34.6282 17.71468,0 22.03294,-15.92416 22.03294,-35.60715 0,-13.77808 -5.07615,-22.85648 -9.8415,-33.4611 -5.07404,-11.29158 -12.55641,-21.37064 -19.683,-31.4928 -9.14333,-12.98663 -29.5245,-37.3977 -29.5245,-37.3977 z m 0,4.42868 c 0,0 19.36211,23.19077 28.04827,35.52807 6.77026,9.61605 13.87852,19.1909 18.69885,29.9179 4.52709,10.07439 9.34943,18.69837 9.34943,31.78754 0,18.69883 -2.07468,33.83619 -18.90362,33.83619 -13.08918,0 -11.73368,-26.6425 -13.60357,-34.12203 -1.86988,-1.86989 -23.61116,4.17957 -23.5343,4.13743 0.0769,-0.0421 -22.06543,-6.24469 -23.93531,-4.37482 -1.86989,7.47953 0.30975,33.82617 -12.77943,33.82617 -16.82896,0 -19.43687,-14.60411 -19.43687,-33.30294 0,-13.08917 4.82235,-21.71315 9.34942,-31.78754 4.82034,-10.727 11.9286,-20.30185 18.69885,-29.9179 8.68617,-12.3373 28.04828,-35.52807 28.04828,-35.52807 z" />
        <path
           id="path50230"
           style="fill:#000000;fill-opacity:1;stroke:none;stroke-width:1.36125"
           d="m 209.74181,335.26965 c -0.0798,1.64881 -0.39966,18.40054 -1.56192,27.96647 -1.16227,9.56593 -4.64906,27.10349 -4.64906,27.10349 5.81132,-3.18863 7.67203,-4.24508 13.48333,-1.05644 0,0 -3.48679,-17.53757 -4.64906,-27.1035 -1.16225,-9.56592 -1.2236,-25.20027 -1.43338,-26.90847 0.0247,-0.86962 -1.15105,-0.80401 -1.18991,-0.002 z m 0.0489,-1.66025 c 0.0652,0.83292 0.29897,17.251 1.40311,26.33863 1.10415,9.08763 4.41598,25.74791 4.41598,25.74791 -5.52074,-3.02921 -5.15377,-1.97277 -10.6745,1.05644 0,0 3.31184,-16.66027 4.41599,-25.7479 1.10415,-9.08763 1.59789,-26.62311 1.35989,-27.39663 -0.40631,-0.2472 -0.52501,-0.24168 -0.92047,0.002 z" />
        <path
           id="path50234"
           style="fill:#000000;fill-opacity:1;stroke:none;stroke-width:0.762561"
           d="m 209.88047,347.46233 c -0.0382,1.08178 -0.19117,12.07259 -0.74707,18.3488 -0.55591,6.2762 -2.22363,17.7826 -2.22363,17.7826 2.77953,-2.09206 3.66951,-2.7852 6.44903,-0.69314 0,0 -1.66772,-11.50639 -2.22363,-17.78259 -0.5559,-6.27621 -0.58524,-16.5339 -0.68558,-17.65466 0.0118,-0.57055 -0.55055,-0.5275 -0.56912,-0.002 z m 0.0233,-1.08929 c 0.0311,0.54648 0.14298,11.31838 0.67109,17.28077 0.52812,5.96239 2.11215,16.8932 2.11215,16.8932 -2.64055,-1.98746 -2.46503,-1.29433 -5.10558,0.69314 0,0 1.58404,-10.9308 2.11216,-16.8932 0.52811,-5.9624 0.76426,-17.46743 0.65043,-17.97494 -0.19434,-0.16218 -0.25111,-0.15856 -0.44025,0.002 z" />
        <path
           id="path50224"
           style="fill:#000000;fill-opacity:1;stroke:none;stroke-width:2.43"
           d="m 209.99993,190.6569 c 0,0 -25.16193,30.13712 -36.45,46.17 -8.79824,12.49648 -18.03575,24.93977 -24.3,38.88 -5.88315,13.09212 -12.15,24.30002 -12.15,41.31 0,24.29998 9.72003,43.74 31.59,43.74 17.00998,0 20.11535,-27.27889 22.54534,-36.99888 2.43,-2.43 15.16401,1.89957 15.16401,4.32957 -2.42999,19.43998 -2.43,26.164 -4.86,40.74399 -2.42999,14.57998 -9.72,41.31 -9.72,41.31 12.14999,-4.85999 24.33558,-6.47019 36.48556,-1.6102 0,0 -7.29,-26.73001 -9.72,-41.31 -2.42999,-14.57998 -2.43,-21.30401 -4.86,-40.744 0,-2.43 12.60976,-5.3553 15.03975,-2.9253 2.43,9.72 5.53537,37.20482 22.54534,37.20482 21.86998,0 31.59,-19.44002 31.59,-43.74 0,-17.00998 -6.26685,-28.21788 -12.15,-41.31 -6.26424,-13.94023 -15.50175,-26.38352 -24.3,-38.88 -11.28806,-16.03288 -36.45,-46.17 -36.45,-46.17 z m 0,5.4675 c 0,0 23.90384,28.63058 34.6275,43.86182 8.35834,11.87166 17.13397,23.69246 23.085,36.93568 5.58899,12.43751 11.5425,23.08439 11.5425,39.24387 0,23.08498 -9.23465,41.55363 -30.01113,41.55363 -16.15948,0 -17.23731,-27.34593 -19.54581,-36.57992 -2.3085,-2.30849 -18.35885,0.4962 -18.35885,2.80507 2.3085,18.46798 2.48822,26.02448 4.79672,39.87546 2.30849,13.85099 9.23273,39.24387 9.23273,39.24387 -11.54248,-4.61699 -19.07057,-3.00679 -30.61306,1.6102 0,0 6.92424,-25.39289 9.23274,-39.24387 2.3085,-13.85099 2.1291,-21.40748 4.4376,-39.87546 0,-2.30849 -16.17462,-6.51782 -18.48312,-4.20933 -2.3085,9.23399 -3.0272,36.37398 -19.18668,36.37398 -20.77648,0 -30.01114,-18.46865 -30.01114,-41.55363 0,-16.15948 5.95352,-26.80636 11.5425,-39.24387 5.95103,-13.24322 14.72666,-25.06402 23.085,-36.93568 10.72366,-15.23124 34.6275,-43.86182 34.6275,-43.86182 z" />
        <path
           id="path50226"
           style="fill:#000000;fill-opacity:1;stroke:none;stroke-width:2.187"
           d="m 209.99993,201.63113 c 0,0 -22.64574,27.12341 -32.805,41.553 -7.91842,11.24684 -16.23217,22.4458 -21.87,34.992 -5.29483,11.78291 -10.935,21.87002 -10.935,37.179 0,21.86999 8.74803,39.366 28.431,39.366 15.30898,0 14.11267,-26.96987 16.29967,-35.71786 2.187,-2.187 19.93667,2.43527 19.93667,4.62228 -2.18699,17.49598 -0.75204,25.24081 -2.93904,38.3628 -2.18699,13.12198 -8.748,37.179 -8.748,37.179 10.935,-4.37399 14.43625,-5.82317 25.37123,-1.44918 0,0 -6.561,-24.05701 -8.748,-37.179 -2.18699,-13.12199 -0.51015,-19.4155 -2.69715,-36.91149 0,-2.187 17.39596,-6.99675 19.58295,-4.80975 2.187,8.748 0.9907,35.9032 16.29967,35.9032 19.68298,0 28.431,-17.49601 28.431,-39.366 0,-15.30898 -5.64017,-25.39609 -10.935,-37.179 -5.63782,-12.5462 -13.95157,-23.74516 -21.87,-34.992 -10.15925,-14.42959 -32.805,-41.553 -32.805,-41.553 z m 0,4.92075 c 0,0 21.51346,25.76753 31.16475,39.47564 7.52251,10.6845 15.42057,21.32322 20.7765,33.24211 5.03009,11.19376 10.38825,20.77596 10.38825,35.31949 0,20.77648 -6.25515,37.39826 -24.95398,37.39826 -14.54353,0 -13.57848,-27.0302 -15.65613,-35.34079 -2.07765,-2.07765 -22.57014,2.62356 -22.57014,4.70154 2.07765,16.62118 0.56255,23.66392 2.6402,36.1298 2.07764,12.46589 8.30945,35.31949 8.30945,35.31949 -10.38823,-4.15529 -9.69773,-2.70612 -20.08597,1.44918 0,0 6.23182,-22.8536 8.30947,-35.31949 2.07765,-12.46589 0.48123,-20.95994 2.55888,-37.58112 0,-2.07764 -20.84623,-6.5917 -22.92388,-4.51406 -2.07765,8.31059 -0.78938,35.15545 -15.33291,35.15545 -18.69884,0 -24.95399,-16.62178 -24.95399,-37.39826 0,-14.54353 5.35817,-24.12573 10.38825,-35.31949 5.35593,-11.91889 13.25399,-22.55761 20.7765,-33.24211 9.65129,-13.70811 31.16475,-39.47564 31.16475,-39.47564 z" />
        <path
           id="path50222"
           style="fill:#000000;fill-opacity:1;stroke:none;stroke-width:2.7"
           d="m 209.99993,178.5 c 0,0 -27.9577,33.48569 -40.5,51.3 -9.77582,13.88497 -20.03972,27.71085 -27,43.2 -6.53683,14.5468 -13.5,27.00002 -13.5,45.9 0,26.99997 10.80003,48.6 35.1,48.6 18.89998,0 26.38624,-29.20919 29.08623,-40.00918 2.7,-2.7 9.32754,0.27615 9.32754,2.97615 -2.69999,21.59998 -2.7,29.07112 -5.4,45.2711 -2.69999,16.19998 -10.8,45.9 -10.8,45.9 13.49999,-5.39999 34.01055,-5.53806 47.51053,-0.13807 0,0 -8.1,-29.70002 -10.8,-45.9 -2.69999,-16.19998 -2.7,-23.67113 -5.4,-45.27111 0,-2.7 6.48948,-5.4 9.18947,-2.7 2.7,10.79999 10.18626,39.87111 29.08623,39.87111 24.29998,0 35.1,-21.60003 35.1,-48.6 0,-18.89998 -6.96317,-31.3532 -13.5,-45.9 -6.96027,-15.48915 -17.22417,-29.31503 -27,-43.2 -12.54229,-17.81431 -40.5,-51.3 -40.5,-51.3 z m 0,6.075 c 0,0 26.55982,31.81175 38.475,48.73535 9.28704,13.19073 19.03774,26.32496 25.65,41.03965 6.20999,13.81945 12.825,25.64932 12.825,43.6043 0,25.64997 -10.26072,46.1707 -33.3457,46.1707 -17.95498,0 -23.18842,-28.91679 -25.75342,-39.17678 -2.565,-2.56499 -12.87736,0.001 -12.87736,2.56641 2.565,20.51998 2.76469,28.91609 5.32969,44.30607 2.56499,15.38998 10.25859,43.6043 10.25859,43.6043 -12.82498,-5.12999 -28.16054,-4.99192 -40.98553,0.13807 0,0 7.6936,-28.21432 10.2586,-43.6043 2.565,-15.38998 2.36566,-23.78608 4.93066,-44.30606 0,-2.56499 -10.45043,-5.40755 -13.01543,-2.84256 -2.565,10.25999 -7.39941,39.31485 -25.35439,39.31485 -23.08498,0 -33.34571,-20.52073 -33.34571,-46.1707 0,-17.95498 6.61502,-29.78485 12.825,-43.6043 6.61226,-14.71469 16.36296,-27.84892 25.65,-41.03965 11.91518,-16.9236 38.475,-48.73535 38.475,-48.73535 z" />
        <path
           id="path73633"
           style="fill:#000000;fill-opacity:1;stroke:none;stroke-width:1.77147"
           d="m 209.44591,219.17802 c 0,0 -18.34305,21.96996 -26.57205,33.65793 -6.41392,9.10994 -13.14806,18.1811 -17.7147,28.34352 -4.28881,9.54416 -8.85735,17.71472 -8.85735,30.11499 0,17.71469 -0.4347,31.56651 15.5085,31.56651 12.40027,0 10.51309,-24.03654 12.28456,-31.12241 1.77147,-1.77147 24.45019,3.14804 25.357,3.11171 0.90681,-0.0363 23.57362,-4.44623 25.34508,-2.67476 1.77147,7.08588 0.36421,31.16538 12.76447,31.16538 15.94322,0 15.02859,-14.33174 15.02859,-32.04643 0,-12.40027 -4.56854,-20.57083 -8.85735,-30.11499 -4.56664,-10.16242 -11.30077,-19.23358 -17.7147,-28.34352 -8.229,-11.68797 -26.57205,-33.65793 -26.57205,-33.65793 z" />
        <path
           id="path3037-7-83"
           style="fill:#000000;fill-opacity:1;stroke:none;stroke-width:3"
           d="m 209.99993,165 c 0,0 -31.06411,37.20632 -45,57 -10.86202,15.42775 -22.26636,30.78983 -30,48 -7.26314,16.16311 -15,30.00002 -15,51 0,29.99997 12.00003,54 39,54 20.99998,0 33.00001,-30.00001 36,-42 3,-3 3,0 3,3 -2.99999,23.99998 -3,30.00002 -6,48 -2.99999,17.99998 -12,51 -12,51 14.99999,-5.99999 45.00002,-5.99999 60,0 0,0 -9,-33.00002 -12,-51 -2.99999,-17.99998 -3,-24.00002 -6,-48 0,-3 1e-5,-6 3,-3 3,11.99999 15.00003,42 36,42 26.99998,0 39,-24.00003 39,-54 0,-20.99998 -7.73685,-34.83689 -15,-51 -7.73363,-17.21017 -19.13797,-32.57225 -30,-48 -13.93588,-19.79368 -45,-57 -45,-57 z m 0,6.75 c 0,0 29.51091,35.34639 42.75,54.15039 10.31893,14.65637 21.15305,29.24995 28.5,45.59961 6.89999,15.35495 14.25,28.49924 14.25,48.44922 0,28.49997 -11.4008,51.30078 -37.05078,51.30078 -19.94998,0 -29.44687,-29.82853 -32.29687,-41.22852 -2.85,-2.84999 -7.09766,0.002 -7.09766,2.85157 2.85,22.79997 3.07188,29.82775 5.92188,46.92773 2.84999,17.09998 11.39843,48.44922 11.39843,48.44922 -14.24998,-5.69999 -38.50001,-5.69999 -52.75,0 0,0 8.54844,-31.34924 11.39844,-48.44922 2.85,-17.09998 2.62852,-24.12776 5.47852,-46.92773 0,-2.85 -4.24766,-5.70156 -7.09766,-2.85157 -2.85,11.39999 -11.90353,41.22852 -31.85351,41.22852 -25.64998,0 -37.05079,-22.80081 -37.05079,-51.30078 0,-19.94998 7.35002,-33.09427 14.25,-48.44922 7.34696,-16.34966 18.18107,-30.94324 28.5,-45.59961 13.23909,-18.804 42.75,-54.15039 42.75,-54.15039 z" />
      </g>
      <g
         id="g81721"
         transform="matrix(1.62,0,0,1.62,-130.45824,-202.85278)">
        <path
           id="path81711"
           style="fill:#ffffff;fill-opacity:1;stroke:none;stroke-width:0.318"
           d="m 210.14798,265.31767 c -3.52341,3.44224 -19.55534,9.29084 -30.96567,3.90253 -1.49803,16.50639 -4.20272,35.19855 5.46977,44.87817 8.38596,8.3921 25.50625,22.04261 25.50625,22.04261 0,0 17.12237,-13.65051 25.50832,-22.04261 9.6725,-9.67962 6.9678,-28.37178 5.46977,-44.87817 -11.41032,5.38831 -27.44227,-0.46029 -30.96567,-3.90253 -0.004,0.003 -0.01,0.006 -0.0124,0.008 -0.004,-0.003 -0.006,-0.005 -0.0106,-0.008 z" />
        <path
           id="path81704"
           style="fill:#000000;fill-opacity:1;stroke:none;stroke-width:0.3"
           d="m 210.14862,267.3221 c -3.32397,3.2474 -18.44843,8.76495 -29.21289,3.68164 -1.41324,15.57206 -3.96483,33.20617 5.16016,42.33789 7.91128,7.91708 24.0625,20.79492 24.0625,20.79492 0,0 16.15318,-12.87784 24.06445,-20.79492 9.125,-9.13172 6.5734,-26.76583 5.16016,-42.33789 -10.76445,5.08331 -25.88893,-0.43424 -29.21289,-3.68164 -0.004,0.003 -0.009,0.006 -0.0117,0.008 -0.004,-0.003 -0.006,-0.005 -0.01,-0.008 z m 0,3.33984 c 0.004,0.003 0.006,0.006 0.01,0.008 0.003,-0.002 0.008,-0.006 0.0117,-0.008 2.99156,2.92264 16.60302,7.88942 26.29101,3.31446 1.27191,14.01484 3.56796,29.88692 -4.64453,38.10546 -7.12015,7.12537 -21.65625,18.71289 -21.65625,18.7129 0,-10e-6 -14.53612,-11.58753 -21.65625,-18.7129 h -0.002 c -8.21248,-8.21854 -5.91644,-24.09062 -4.64453,-38.10546 9.688,4.57496 23.29944,-0.39182 26.29101,-3.31446 z m 0.0312,2.97461 c -0.18678,0.18248 -0.4287,0.37555 -0.70312,0.57227 v 26.44336 h 24.99023 c 1.23543,-7.19909 0.12742,-15.95773 -0.60547,-24.03321 -8.71917,4.11747 -20.96969,-0.35206 -23.66211,-2.98242 -0.004,0.002 -0.007,0.006 -0.01,0.008 -0.004,-0.002 -0.006,-0.005 -0.01,-0.008 z m -0.70312,27.01563 h -23.5625 c 0.69423,4.04541 2.12603,7.60061 4.78515,10.26172 h 0.002 c 5.87529,5.87957 16.90588,14.76886 18.77539,16.26757 z m -10.0293,-16.14844 c 0,0 -1.55321,1.85992 -2.25,2.84961 -0.5431,0.77138 -1.11332,1.53988 -1.5,2.40039 -0.36316,0.80815 -0.75,1.49883 -0.75,2.54883 0,1.5 0.59922,2.70117 1.94922,2.70117 1.05,0 1.65078,-1.4996 1.80078,-2.09961 0.15,-0.14999 0.15039,-0.002 0.15039,0.14844 -0.15,1.2 -0.15078,1.50039 -0.30078,2.40039 -0.15,0.9 -0.59961,2.55078 -0.59961,2.55078 0.75,-0.3 2.25,-0.3 3,0 0,0 -0.44961,-1.65078 -0.59961,-2.55078 -0.15,-0.9 -0.15078,-1.20039 -0.30078,-2.40039 0,-0.15 3.9e-4,-0.29844 0.15039,-0.14844 0.15,0.60001 0.74883,2.09961 1.79883,2.09961 1.35,0 1.95117,-1.20117 1.95117,-2.70117 0,-1.05 -0.38684,-1.74068 -0.75,-2.54883 -0.38668,-0.86051 -0.9569,-1.62901 -1.5,-2.40039 -0.6968,-0.98969 -2.25,-2.84961 -2.25,-2.84961 z m 17.64648,0 c 1.24264,0 2.09961,1.04236 2.09961,2.69922 0,0.29999 0.30078,0.29999 0.30078,0 0,-1.65686 0.85699,-2.69922 2.09961,-2.69922 1.24264,0 2.25,1.34315 2.25,3 -0.003,0.13469 -0.005,0.27571 0,0.42187 0,1.09477 -0.40153,2.15695 -0.75,3.15039 -0.35836,1.02164 -0.87503,1.91593 -1.35937,2.83008 -0.75018,1.41591 -2.39063,4.09766 -2.39063,4.09766 0,0 -1.64044,-2.68175 -2.39062,-4.09766 -0.48434,-0.91415 -1.00102,-1.80844 -1.35938,-2.83008 -0.34847,-0.99344 -0.75,-2.05562 -0.75,-3.15039 0.003,-0.1382 0.005,-0.27852 0,-0.42187 0,-1.65685 1.00738,-3 2.25,-3 z m -17.64648,17.67969 c 0,0 0.89922,2.25 1.94922,3.75 1.05,1.5 2.55078,3 2.55078,3 0,0 -1.50078,1.5 -2.55078,3 -1.05,1.5 -1.94922,3.75 -1.94922,3.75 0,0 -0.90117,-2.25 -1.95117,-3.75 -1.05,-1.5 -2.54883,-3 -2.54883,-3 0,0 1.49883,-1.5 2.54883,-3 1.05,-1.5 1.95117,-3.75 1.95117,-3.75 z m 19.89648,0 c -1.19999,0 -1.95117,1.49923 -1.95117,2.69922 0,1.05 0.75117,2.25117 1.20117,2.70117 0.15,0.15 -3.9e-4,0.30039 -0.15039,0.15039 -0.45,-0.44999 -0.90039,-1.20117 -1.65039,-1.20117 -1.35,0 -1.94922,1.34961 -1.94922,2.84961 0,1.49999 0.59922,2.70117 1.94922,2.70117 0.75,0 1.50078,-0.89999 1.80078,-1.5 0.15,-0.14999 0.14844,3.9e-4 0.14844,0.15039 -0.15,1.2 -0.14883,1.49844 -0.29883,2.39844 -0.15,0.89999 -0.59961,2.55078 -0.59961,2.55078 0.75,-0.3 2.25,-0.3 3,0 0,0 -0.45156,-1.65079 -0.60156,-2.55078 -0.15,-0.9 -0.14883,-1.19844 -0.29883,-2.39844 0,-0.15 3.9e-4,-0.30039 0.15039,-0.15039 0.3,0.60001 1.04883,1.5 1.79883,1.5 1.35,0 1.95117,-1.20118 1.95117,-2.70117 0,-1.5 -0.60117,-2.84961 -1.95117,-2.84961 -0.75,0 -1.20039,0.75118 -1.65039,1.20117 -0.15,0.15 -0.29844,-3.9e-4 -0.14844,-0.15039 0.45,-0.45 1.19922,-1.65117 1.19922,-2.70117 0,-1.19999 -0.74922,-2.69922 -1.94922,-2.69922 z" />
      </g>
      <path
         id="path3497-7"
         d="m 57.5,60 -9,50 h 5 l 2.34375,-13 h 8.3125 L 66.5,110 h 5 l -9,-50 z M 60,73.90625 63.25,92 h -6.5 z"
         style="fill:#000000;stroke:none" />
      <path
         id="path3497-5-9"
         d="m 357.5,540.00002 -9,-50.00004 h 5 l 2.34375,13 h 8.3125 l 2.34375,-13 h 5 l -9,50.00004 z M 360,526.09372 363.25,508 h -6.5 z"
         style="fill:#000000;stroke:none" />
      <path
         id="path3037-7-4-02"
         d="m 62.5,148 c 0.5,2 2.5,7 6,7 4.5,0 6.5,-4 6.5,-9 0,-3.5 -1.289475,-5.80614 -2.5,-8.5 -1.28894,-2.86836 -3.18966,-5.4287 -5,-8 C 65.17735,126.20105 60,120 60,120 c 0,0 -5.17735,6.20105 -7.5,9.5 -1.81034,2.5713 -3.71106,5.13164 -5,8 -1.210525,2.69386 -2.5,5 -2.5,8.5 0,5 2,9 6.5,9 3.5,0 5.5,-5 6,-7 0.5,-0.5 0.5,0 0.5,0.5 -0.5,4 -0.5,5 -1,8 -0.5,3 -2,8.5 -2,8.5 2.5,-1 7.5,-1 10,0 0,0 -1.5,-5.5 -2,-8.5 -0.5,-3 -0.5,-4 -1,-8 0,-0.5 0,-1 0.5,-0.5 z"
         style="fill:#000000;fill-opacity:1;stroke:none" />
      <path
         id="path3037-7-4-0-2"
         d="m 362.5,452 c 0.5,-2 2.5,-7 6,-7 4.5,0 6.5,4 6.5,9 0,3.5 -1.28947,5.80614 -2.5,8.5 -1.28894,2.86836 -3.18966,5.4287 -5,8 -2.32265,3.29895 -7.5,9.5 -7.5,9.5 0,0 -5.17735,-6.20105 -7.5,-9.5 -1.81034,-2.5713 -3.71106,-5.13164 -5,-8 -1.21053,-2.69386 -2.5,-5 -2.5,-8.5 0,-5 2,-9 6.5,-9 3.5,0 5.5,5 6,7 0.5,0.5 0.5,0 0.5,-0.5 -0.5,-4 -0.5,-5 -1,-8 -0.5,-3 -2,-8.5 -2,-8.5 2.5,1 7.5,1 10,0 0,0 -1.5,5.5 -2,8.5 -0.5,3 -0.5,4 -1,8 0,0.5 0,1 0.5,0.5 z"
         style="fill:#000000;fill-opacity:1;stroke:none" />
    </g>
  </g>
</svg>
